<?xml version="1.0" encoding="UTF-8"?><svg xmlns="http://www.w3.org/2000/svg" viewBox="0 0 140.7 116.31"><defs><style>.f,.g{fill:#e62536;}.h{fill:#fff;}.g{stroke:#000;stroke-miterlimit:10;stroke-width:1.49px;}</style></defs><g id="a"/><g id="b"><g id="c"><g id="d"><g id="e"><g><g><g><path class="h" d="M49.86,12.19c0-6.53-5.44-11.94-11.98-11.9-6.51,.04-11.93,5.58-11.83,12.08,.1,6.38,5.44,11.68,11.83,11.74,6.52,.06,11.97-5.37,11.98-11.91h0Z"/><path class="f" d="M35.26,50.28c.25,5.27,.41,9.88,.76,14.46,.07,.87,.79,1.87,1.48,2.5,9.99,9.08,14.29,20.81,15.75,33.84,.28,2.48,.42,4.99,.46,7.49,.06,4.53-2.55,7.6-6.41,7.74-3.84,.13-6.4-2.87-6.93-7.32-.72-6.06-1.31-12.23-2.94-18.07-1.18-4.22-3.97-8-6.04-11.97l-.99,.09c-.54,1.71-1.1,3.42-1.63,5.13-3.19,10.33-8.14,19.73-15.05,28.06-4.71,5.68-9.21,5.33-13.3-1.07-.41-.96-.45-1.67-.41-2.32,.04-.55,0-.68,.66-1.33,7.75-9.13,13.71-19.2,16.54-30.97,.96-3.98,1.29-7.65,.14-11.92-2.85-10.56-1.93-21.29,2-31.49,1.06-2.74,3.52-5.42,6.04-7,5.41-3.41,10.12-1.17,12.2,5.82l-2.33,18.33Z"/></g><path class="f" d="M49.86,12.19c0,6.54-5.46,11.96-11.98,11.91-6.39-.05-11.73-5.35-11.83-11.74-.1-6.5,5.32-12.04,11.83-12.08,6.54-.04,11.98,5.37,11.98,11.9h0Z"/><path class="f" d="M41.84,40.77c-5.21-.63-9.45-3.09-12.92-6.94-2.16-2.39-2.27-4.9-.44-6.66,1.84-1.77,4.27-1.46,6.54,.83,5.33,5.37,10.7,5.96,17.56,1.92,4.21-2.48,6.5-2.51,8-.12,1.61,2.56,.41,4.99-3.77,7.45-4.62,2.72-9.52,4.28-14.97,3.51h0Z"/><path class="g" d="M45.06,46.87c-5.72,.04-10.65-2.04-14.94-5.73-2.66-2.29-3.13-4.99-1.39-7.14,1.75-2.16,4.41-2.16,7.19,0,6.51,5.08,12.4,4.97,19.26-.34,4.21-3.26,6.68-3.61,8.64-1.23,2.09,2.55,1.12,5.34-3.06,8.58-4.62,3.58-9.71,5.94-15.71,5.86h0Z"/></g><g><g><path class="h" d="M102.81,23.81c6.39-.05,11.73-5.35,11.83-11.74C114.75,5.58,109.32,.04,102.82,0c-6.54-.04-11.98,5.37-11.98,11.9s5.46,11.96,11.98,11.91h-.01Z"/><path class="f" d="M105.44,50c-.25,5.27-.41,9.88-.76,14.46-.07,.87-.79,1.87-1.48,2.5-9.99,9.08-14.29,20.81-15.75,33.84-.28,2.48-.42,4.99-.46,7.49-.06,4.53,2.55,7.6,6.41,7.74,3.84,.13,6.4-2.87,6.93-7.32,.72-6.06,1.31-12.23,2.94-18.07,1.18-4.22,3.97-8,6.04-11.97l.99,.09c.54,1.71,1.1,3.42,1.63,5.13,3.19,10.33,8.14,19.73,15.05,28.06,4.71,5.68,9.21,5.33,13.3-1.07,.41-.96,.45-1.67,.41-2.32-.04-.55,0-.68-.66-1.33-7.75-9.13-13.71-19.2-16.54-30.97-.96-3.98-1.29-7.65-.14-11.92,2.85-10.56,1.93-21.29-2-31.49-1.06-2.74-3.52-5.42-6.04-7-5.41-3.41-10.12-1.17-12.2,5.82l2.33,18.33Z"/></g><path class="f" d="M90.84,11.9c0,6.54,5.46,11.96,11.98,11.91,6.39-.05,11.73-5.35,11.83-11.74C114.75,5.58,109.32,.04,102.82,0c-6.54-.04-11.98,5.37-11.98,11.9Z"/><path class="f" d="M98.86,40.49c5.21-.63,9.45-3.09,12.92-6.94,2.16-2.39,2.27-4.9,.44-6.66-1.84-1.77-4.27-1.46-6.54,.83-5.33,5.37-10.7,5.96-17.56,1.92-4.21-2.48-6.5-2.51-8-.12-1.61,2.56-.41,4.99,3.77,7.45,4.62,2.72,9.52,4.28,14.97,3.51h0Z"/><path class="g" d="M95.64,46.59c5.72,.04,10.65-2.04,14.94-5.73,2.66-2.29,3.13-4.99,1.39-7.14-1.75-2.16-4.41-2.16-7.19,0-6.51,5.08-12.4,4.97-19.26-.34-4.21-3.26-6.68-3.61-8.64-1.23-2.09,2.55-1.12,5.34,3.06,8.58,4.62,3.58,9.71,5.94,15.71,5.86h0Z"/></g></g></g></g></g></g></svg>