<?xml version="1.0" encoding="UTF-8"?><svg xmlns="http://www.w3.org/2000/svg" viewBox="0 0 96.11 169.88"><defs><style>.d{fill:#fff;}.e{stroke:#fff;stroke-miterlimit:10;stroke-width:2.18px;}</style></defs><g id="a"/><g id="b"><g id="c"><g><g><path class="d" d="M40.63,34.86c9.35-.08,17.17-7.84,17.32-17.18C58.11,8.16,50.16,.06,40.64,0c-9.57-.06-17.54,7.86-17.54,17.43,0,9.58,7.99,17.52,17.53,17.43Z"/><path d="M44.48,73.2c-.37,7.72-.59,14.46-1.12,21.17-.1,1.28-1.15,2.73-2.17,3.66-14.63,13.3-20.92,30.46-23.06,49.55-.41,3.64-.62,7.31-.67,10.97-.09,6.63,3.73,11.13,9.38,11.32,5.62,.19,9.38-4.2,10.15-10.72,1.05-8.88,1.91-17.9,4.3-26.45,1.73-6.18,5.81-11.71,8.84-17.53l1.46,.14c.8,2.51,1.61,5,2.39,7.52,4.68,15.13,11.92,28.88,22.04,41.09,6.9,8.32,13.48,7.8,19.48-1.57,.6-1.4,.66-2.44,.6-3.4-.06-.81,0-1-.97-1.94-11.35-13.36-20.08-28.11-24.21-45.34-1.4-5.83-1.89-11.2-.2-17.45,4.17-15.47,2.83-31.17-2.93-46.11-1.55-4.01-5.15-7.93-8.84-10.26-7.92-4.99-14.82-1.71-17.87,8.52l3.41,26.83Z"/></g><path d="M23.1,17.43c0,9.58,7.99,17.52,17.53,17.43,9.35-.08,17.17-7.84,17.32-17.18C58.11,8.16,50.16,.06,40.64,0c-9.57-.06-17.54,7.86-17.54,17.43Z"/><path d="M34.84,59.27c7.63-.92,13.84-4.53,18.92-10.16,3.16-3.5,3.33-7.17,.64-9.75-2.7-2.59-6.25-2.13-9.58,1.22-7.81,7.87-15.67,8.73-25.71,2.81-6.16-3.63-9.51-3.68-11.72-.17-2.35,3.75-.59,7.3,5.53,10.9,6.76,3.98,13.94,6.27,21.91,5.14Z"/><path class="e" d="M30.13,68.21c8.38,.05,15.6-2.99,21.87-8.38,3.9-3.35,4.59-7.3,2.04-10.46-2.56-3.17-6.46-3.17-10.53,0-9.53,7.44-18.16,7.28-28.2-.5-6.16-4.78-9.78-5.29-12.65-1.8-3.06,3.73-1.65,7.81,4.48,12.56,6.77,5.24,14.22,8.7,23,8.58Z"/></g></g></g></svg>