<?xml version="1.0" encoding="UTF-8"?><svg xmlns="http://www.w3.org/2000/svg" viewBox="0 0 177.1 177.1"><defs><style>.h{fill:rgba(255,255,255,0);}.i,.j{fill:#fff;}.k{fill:#1d1d1b;}.j{font-family:MAZERUNNER, MAZE RUNNER;font-size:19px;isolation:isolate;}</style></defs><g id="a"/><g id="b"><g id="c"><g id="d"><g id="e"><g id="f"><g id="g"><circle class="k" cx="88.54" cy="88.55" r="86.55"/><path class="h" d="M88.54,4c46.7,0,84.55,37.84,84.56,84.54,0,46.7-37.84,84.55-84.54,84.56-46.7,0-84.55-37.84-84.56-84.54h0c0-46.7,37.84-84.55,84.53-84.56h.01m0-4C39.64,0,0,39.66,0,88.56c0,48.9,39.66,88.55,88.56,88.54,48.9,0,88.54-39.65,88.54-88.55C177.09,39.64,137.45,0,88.54,0Z"/><path class="i" d="M51.67,85.41s8.1,23.42,9.28,24.53,8.55-.88,8.92-2.14-5.46-22.39-5.46-22.39h2.18s6,25.34,7.22,26.08,11.42-1.55,11.79-2.8-5.72-26.67-5.72-26.67h1.92s5.82,24.6,7.22,26.67,14-1.26,14.43-2.8-5.45-28-5.45-28h2.21s4.64,24.08,6,26.22,12-.74,12.53-2.06-5.88-32.4-6.47-35.22-2.6-7.13-4.6-7.64-7.52,.88-8.55,1.32-3,2.32-4.38,2.32-4.2-3.68-5.74-4.57-7.22,1.57-8.25,2.25-2.65,5.09-3.83,5.32-3-.89-4.42-1.18-5.9,1.18-7.22,2.18-2.61,6-3.39,6.5-3.68,0-4.79,0-4.86,2.5-5.43,3.83,0,8.25,0,8.25Z"/><path class="i" d="M124.87,83.94c-.66-2.29-7.51-4.57-7.51-4.57,0,0,3.46,21.21,3.6,22.69s-.58,2.13-2.2,2.87-21.81,5.08-22.47,5.53-1,1.47-1.55,4c-.55,2.53,.59,2.94,.89,3s21.36-1.4,24.38-2.21c1.83-.56,3.27-2,3.83-3.83,0,0,1.69-25.2,1.03-27.48Z"/><text class="j" transform="translate(47.42 51.78) scale(1.12 1)"><tspan x="0" y="0">FIGHT</tspan></text><text class="j" transform="translate(55.44 138.32) scale(1.12 1)"><tspan x="0" y="0">SITE</tspan></text></g></g></g></g></g></g></svg>