<svg width="899" height="453" viewBox="0 0 899 453" fill="none" xmlns="http://www.w3.org/2000/svg">
<path d="M285.235 35.6611L319.589 53.6397C322.188 55.0252 325.032 55.6241 327.933 55.4575L378.491 52.0825C392.621 51.1763 401.173 54.6711 408.001 62.718C414.788 70.7909 420.788 85.4833 420.053 108.478C418.934 142.827 432.548 152.166 447.799 168.238C459.512 180.592 460.939 181.29 462.621 205.743L469.392 303.175C471.725 336.321 472.033 342.634 456.043 360.181L407.168 413.973C402.595 419.025 399.262 420.41 392.392 421.181C385.491 421.921 375.204 420.926 361.793 418.801L268.039 403.978C259.096 402.567 254.252 399.358 251.091 395.65C247.945 391.931 246.164 387.087 246.039 380.65C246.007 376.504 246.82 371.791 248.372 366.962C254.429 368.03 260.685 368.639 267.091 368.503C291.383 368.071 309.044 362.764 322.528 348.801C336.84 363.441 355.424 368.421 373.476 368.503C390.684 368.597 407.44 363.759 420.241 352.815C433.075 341.93 440.851 324.785 440.809 305.081L434.247 209.414C432.768 188.149 409.101 188.117 409.492 209.414V305.081C409.492 317.227 405.768 324.002 399.935 329.013C394.07 334.023 384.893 337.133 373.487 337.133C362.044 337.133 352.971 334.023 347.085 329.013C341.205 324.002 337.835 317.226 337.445 305.081L332.518 149.441C332.044 135.003 311.179 135.227 310.742 149.441L306.07 305.081C305.815 314.622 303.471 325.133 296.835 329.794C290.611 334.206 279.986 337.138 267.101 337.138C254.215 337.138 243.59 334.159 237.335 329.794C231.065 325.482 228.341 320.95 228.085 311.127L224.018 154.981C223.627 139.73 203.924 140.721 203.324 154.981L196.71 311.127C196.319 320.94 193.731 325.482 187.46 329.794C181.205 334.159 170.528 337.138 157.643 337.138C144.773 337.138 134.148 334.159 127.877 329.794C121.606 325.482 118.981 320.95 118.627 311.127L113.882 181.106C113.32 166.075 95.3877 167.418 94.6171 181.106L87.2577 310.133L58.8564 310.128C51.596 310.128 45.9397 307.148 40.6791 299.841C35.3927 292.539 31.3457 280.659 31.3457 265.363V161.128C31.3457 145.06 33.7624 133.404 37.4708 126.789C41.1948 120.169 45.1687 117.018 55.7988 115.383L98.7055 108.721C102.648 108.107 106.138 106.05 108.56 102.982L140.06 63.2739C143.476 58.9821 155.226 54.5864 164.117 55.7479L206.554 61.3729C210.231 61.8521 213.945 61.024 217.059 59.0396L254.086 35.4463C264.055 29.0921 276.211 30.8993 285.237 35.6598L285.235 35.6611ZM238.095 8.39573L204.944 29.5264L168.256 24.6827C149.251 22.1879 128.459 27.3701 115.417 43.7867L87.8081 78.6987L50.9481 84.4069C33.0628 87.1673 18.1508 97.2351 10.1615 111.402C2.17186 125.574 0 142.339 0 161.131V265.355C0 286.006 5.15105 304.339 15.2133 318.276C25.3279 332.24 41.2707 341.49 58.8533 341.49H96.3587C100.036 347.063 104.656 351.859 109.973 355.568C123.504 364.954 139.317 368.485 157.629 368.485C180.968 368.485 200.113 362.313 212.384 349.526C214.509 351.683 216.79 353.709 219.202 355.401C216.264 363.828 214.582 372.417 214.712 381.063C214.884 393.464 218.728 405.953 227.108 415.901C235.535 425.833 248.207 432.568 263.149 434.948L356.92 449.765C370.873 451.973 383.321 453.708 395.811 452.323C408.305 450.937 421.008 445.323 430.425 434.989L479.3 381.287C501.727 356.656 503.409 340.579 500.639 300.953L493.894 203.563C491.993 175.693 484.477 159.833 470.53 146.656C456.609 133.557 451.426 127.891 451.426 108.459C451.426 80.8079 445.337 58.3225 431.931 42.4372C418.551 26.5732 397.967 19.3585 376.494 20.7919L330.265 23.8127L299.749 7.91666C279.837 -2.5052 255.853 -2.93227 238.093 8.39584L238.095 8.39573Z" fill="white"/>
<path d="M541.728 198V85.3H600.493V104.62H563.785V132.795H595.663V151.471H563.785V198H541.728ZM609.807 198V85.3H631.864V198H609.807ZM700.836 198H666.704C658.976 190.916 653.341 182.49 649.799 172.723C646.257 162.956 644.486 152.759 644.486 142.133C644.486 131.4 646.633 120.827 650.926 110.416C655.22 100.005 661.23 91.6327 668.958 85.3H708.081V104.62H678.135C675.345 107.84 672.93 112.938 670.89 119.915C668.851 126.784 667.831 134.137 667.831 141.972C667.831 149.7 668.744 157.106 670.568 164.19C672.5 171.167 674.862 176.211 677.652 179.324H693.108V135.532H714.36V162.58C714.36 177.392 709.852 189.199 700.836 198ZM748.998 198H726.941V85.3H748.998V130.702H774.758V85.3H796.815V198H774.758V151.31H748.998V198ZM830.508 104.62H806.197V85.3H876.715V104.62H852.404V198H830.508V104.62Z" fill="white"/>
<path d="M552.032 235.3H590.672V254.62H559.76L559.277 255.586L585.037 302.598C590.296 312.043 592.926 319.235 592.926 324.172C592.926 335.013 589.33 342.955 582.139 348H539.474V329.324H572.801L573.284 328.358L544.304 276.355C540.118 268.842 538.025 262.724 538.025 258.001C538.025 246.838 542.694 239.271 552.032 235.3ZM604.147 348V235.3H626.204V348H604.147ZM659.917 254.62H635.606V235.3H706.124V254.62H681.813V348H659.917V254.62ZM715.463 348V235.3H773.262V254.62H737.52V281.507H769.398V300.183H737.52V329.324H773.906V348H715.463Z" fill="white"/>
</svg>
