<?xml version="1.0" encoding="UTF-8"?><svg xmlns="http://www.w3.org/2000/svg" viewBox="0 0 20 20"><defs><style>.f{fill:#e62536;}</style></defs><g id="a"/><g id="b"><g id="c"><g id="d"><g id="e"><path class="f" d="M5.5,14c.4,0,.78-.16,1.06-.44s.44-.66,.44-1.06v-.15l2.79-2.79h.46l1.61,1.61v.08c0,.4,.16,.78,.44,1.06s.66,.44,1.06,.44,.78-.16,1.06-.44,.44-.66,.44-1.06v-.08l3.64-3.67c.3,0,.59-.09,.83-.25,.25-.16,.44-.4,.55-.67,.11-.27,.14-.58,.09-.87-.06-.29-.2-.56-.41-.77s-.48-.35-.77-.41-.59-.03-.87,.09c-.27,.11-.51,.31-.67,.55-.16,.25-.25,.54-.25,.83v.15l-3.61,3.61h-.16l-1.73-1.76c0-.4-.16-.78-.44-1.06s-.66-.44-1.06-.44-.78,.16-1.06,.44-.44,.66-.44,1.06l-3,3c-.4,0-.78,.16-1.06,.44s-.44,.66-.44,1.06,.16,.78,.44,1.06,.66,.44,1.06,.44Zm13.5,4H2V1c0-.27-.11-.52-.29-.71-.19-.19-.44-.29-.71-.29S.48,.11,.29,.29c-.19,.19-.29,.44-.29,.71V19c0,.27,.11,.52,.29,.71,.19,.19,.44,.29,.71,.29H19c.27,0,.52-.11,.71-.29s.29-.44,.29-.71-.11-.52-.29-.71-.44-.29-.71-.29Z"/></g></g></g></g></svg>